<svg width="150" height="150" viewBox="0 0 259 259" fill="none" xmlns="http://www.w3.org/2000/svg">
<circle cx="129.5" cy="129.5" r="129.5" fill="#78CEFF" fill-opacity="0.52"/>
<circle cx="129.5" cy="129.5" r="86.3333" fill="#15ABFF"/>
<path d="M129.5 77.7L86.3333 96.5363V124.791C86.3333 150.926 104.751 175.366 129.5 181.3C154.249 175.366 172.667 150.926 172.667 124.791V96.5363L129.5 77.7Z" fill="white"/>
<path d="M144.3 125.183C145.87 125.183 147.376 125.82 148.486 126.953C149.596 128.087 150.22 129.624 150.22 131.227V149.357C150.22 150.959 149.596 152.496 148.486 153.63C147.376 154.763 145.87 155.4 144.3 155.4H114.7C113.13 155.4 111.624 154.763 110.514 153.63C109.404 152.496 108.78 150.959 108.78 149.357V131.227C108.78 129.624 109.404 128.087 110.514 126.953C111.624 125.82 113.13 125.183 114.7 125.183V110.075C114.7 106.068 116.259 102.225 119.035 99.3917C121.81 96.5583 125.575 94.9666 129.5 94.9666C133.425 94.9666 137.19 96.5583 139.965 99.3917C142.741 102.225 144.3 106.068 144.3 110.075V125.183ZM129.5 146.335C131.07 146.335 132.576 145.698 133.686 144.565C134.796 143.431 135.42 141.894 135.42 140.292C135.42 138.689 134.796 137.152 133.686 136.018C132.576 134.885 131.07 134.248 129.5 134.248C127.93 134.248 126.424 134.885 125.314 136.018C124.204 137.152 123.58 138.689 123.58 140.292C123.58 141.894 124.204 143.431 125.314 144.565C126.424 145.698 127.93 146.335 129.5 146.335ZM138.38 125.183V110.075C138.38 108.884 138.15 107.706 137.704 106.606C137.258 105.506 136.604 104.507 135.779 103.665C134.955 102.823 133.976 102.155 132.898 101.7C131.821 101.244 130.666 101.01 129.5 101.01C128.334 101.01 127.179 101.244 126.102 101.7C125.024 102.155 124.046 102.823 123.221 103.665C122.396 104.507 121.742 105.506 121.296 106.606C120.85 107.706 120.62 108.884 120.62 110.075V125.183H138.38Z" fill="black"/>
</svg>
