<svg width="1055" height="752" viewBox="0 0 1055 752" fill="none" xmlns="http://www.w3.org/2000/svg">
<path d="M808.935 224.058C840.798 402.587 679.202 528 539.057 528C398.913 528 174.358 379.371 174.358 244.714C174.358 110.058 287.967 0.896729 428.112 0.896729C568.256 0.896729 808.935 89.4013 808.935 224.058Z" fill="#2C7470" fill-opacity="0.06"/>
<path d="M1055 495.5C1055 602.367 952.921 689 827 689C701.079 689 394 757.867 394 651C394 544.133 701.079 302 827 302C952.921 302 1055 388.633 1055 495.5Z" fill="#0D0C57" fill-opacity="0.1"/>
<path d="M438.31 550.826C438.31 661.648 344.81 751.487 229.472 751.487C114.133 751.487 -10.0403 704.272 -55.5681 598.409C-128.698 428.364 59.2364 300 174.575 300C289.913 300 438.31 440.004 438.31 550.826Z" fill="#417ACE" fill-opacity="0.17"/>
</svg>
