<svg width="35" height="35" viewBox="0 0 40 40" fill="none" xmlns="http://www.w3.org/2000/svg">
<path d="M3.69998 3.69997C3.48859 3.91141 3.36 4.19162 3.33752 4.48976C3.31505 4.7879 3.40018 5.08422 3.57748 5.32497L3.69998 5.46747L10.425 12.1925C7.14649 14.4898 4.80595 17.8919 3.83248 21.775C3.7608 22.0935 3.8166 22.4275 3.98795 22.7054C4.1593 22.9833 4.4326 23.1832 4.7494 23.2622C5.0662 23.3412 5.40135 23.2932 5.68317 23.1283C5.965 22.9635 6.17113 22.6949 6.25748 22.38C7.1219 18.9336 9.25128 15.9385 12.2225 13.99L15.24 17.0075C14.0295 18.2657 13.3609 19.9486 13.3779 21.6945C13.3948 23.4404 14.0958 25.11 15.3304 26.3445C16.565 27.5791 18.2346 28.2802 19.9805 28.2971C21.7264 28.314 23.4092 27.6454 24.6675 26.435L34.5325 36.3C34.7555 36.5221 35.0542 36.6519 35.3688 36.6634C35.6834 36.675 35.9908 36.5673 36.2295 36.3621C36.4682 36.1569 36.6207 35.8691 36.6564 35.5563C36.6922 35.2436 36.6087 34.9288 36.4225 34.675L36.3 34.5325L26.1125 24.3425V24.34L24.1125 22.3425L19.33 17.56H19.3325L14.5325 12.7625V12.76L12.645 10.875L5.46748 3.69997C5.23307 3.46563 4.91518 3.33398 4.58373 3.33398C4.25227 3.33398 3.93439 3.46563 3.69998 3.69997V3.69997ZM17.0075 18.775L22.8975 24.6675C22.1107 25.4226 21.0594 25.8393 19.9689 25.8282C18.8784 25.817 17.8358 25.3789 17.0647 24.6078C16.2936 23.8366 15.8554 22.794 15.8443 21.7036C15.8331 20.6131 16.2498 19.5617 17.005 18.775H17.0075ZM20 9.16747C18.3325 9.16747 16.715 9.41247 15.185 9.87497L17.2475 11.935C20.8135 11.2286 24.5146 11.9196 27.5856 13.865C30.6566 15.8104 32.8626 18.8615 33.7475 22.3875C33.8338 22.7024 34.04 22.971 34.3218 23.1358C34.6036 23.3007 34.9388 23.3488 35.2556 23.2697C35.5724 23.1907 35.8457 22.9908 36.017 22.7129C36.1884 22.435 36.2442 22.101 36.1725 21.7825C35.2681 18.1782 33.1856 14.9793 30.2556 12.6938C27.3256 10.4083 23.716 9.16719 20 9.16747V9.16747ZM20.325 15.0175L26.66 21.35C26.5788 19.696 25.8853 18.1315 24.7144 16.9605C23.5435 15.7896 21.9789 15.0961 20.325 15.015V15.0175Z" fill="black"/>
</svg>
