<svg width="35" height="35" viewBox="0 0 40 40" fill="none" xmlns="http://www.w3.org/2000/svg">
<path d="M19.9998 15.0075C20.8754 15.0075 21.7424 15.1799 22.5513 15.515C23.3602 15.8501 24.0953 16.3412 24.7144 16.9603C25.3335 17.5795 25.8247 18.3145 26.1597 19.1234C26.4948 19.9324 26.6673 20.7994 26.6673 21.675C26.6673 22.5506 26.4948 23.4176 26.1597 24.2265C25.8247 25.0355 25.3335 25.7705 24.7144 26.3896C24.0953 27.0087 23.3602 27.4999 22.5513 27.8349C21.7424 28.17 20.8754 28.3425 19.9998 28.3425C18.2314 28.3425 16.5355 27.64 15.2851 26.3896C14.0347 25.1392 13.3323 23.4433 13.3323 21.675C13.3323 19.9066 14.0347 18.2107 15.2851 16.9603C16.5355 15.7099 18.2314 15.0075 19.9998 15.0075V15.0075ZM19.9998 17.5075C18.8945 17.5075 17.8345 17.9466 17.0529 18.7281C16.2713 19.5097 15.8323 20.5697 15.8323 21.675C15.8323 22.7803 16.2713 23.8403 17.0529 24.6218C17.8345 25.4034 18.8945 25.8425 19.9998 25.8425C21.1051 25.8425 22.1651 25.4034 22.9466 24.6218C23.7282 23.8403 24.1673 22.7803 24.1673 21.675C24.1673 20.5697 23.7282 19.5097 22.9466 18.7281C22.1651 17.9466 21.1051 17.5075 19.9998 17.5075ZM19.9998 9.16748C27.6898 9.16748 34.3248 14.4175 36.1673 21.775C36.2113 21.9356 36.2228 22.1035 36.2011 22.2686C36.1794 22.4338 36.1248 22.593 36.0407 22.7368C35.9566 22.8805 35.8446 23.0061 35.7113 23.1059C35.5779 23.2058 35.426 23.2781 35.2644 23.3184C35.1027 23.3587 34.9347 23.3663 34.77 23.3408C34.6054 23.3152 34.4476 23.257 34.3058 23.1696C34.164 23.0822 34.0411 22.9673 33.9443 22.8317C33.8475 22.6961 33.7788 22.5425 33.7423 22.38C32.9687 19.3207 31.1964 16.6069 28.7062 14.6687C26.216 12.7305 23.1502 11.6787 19.9946 11.6798C16.839 11.681 13.774 12.7351 11.2852 14.6751C8.79641 16.6151 7.02611 19.3301 6.25477 22.39C6.1723 22.7095 5.96684 22.9834 5.6832 23.152C5.39957 23.3207 5.06076 23.3703 4.74068 23.2901C4.4206 23.2099 4.1452 23.0064 3.97456 22.724C3.80392 22.4416 3.75187 22.1031 3.82977 21.7825C4.73401 18.1786 6.81616 14.9801 9.74568 12.6946C12.6752 10.4092 16.2842 9.16776 19.9998 9.16748Z" fill="black"/>
</svg>
