<svg width="40" height="40" viewBox="0 0 40 40" fill="none" xmlns="http://www.w3.org/2000/svg">
<path d="M35.8166 3.66038C30.2426 -1.22013 21.1657 -1.22013 15.5977 3.66038L0.153901 17.1725C0.0533094 17.2605 5.47034e-05 17.3797 5.47034e-05 17.504C5.47034e-05 17.6284 0.0533094 17.7476 0.153901 17.8356L2.33733 19.7474C2.43713 19.8344 2.57223 19.8833 2.71307 19.8833C2.8539 19.8833 2.989 19.8344 3.08881 19.7474L18.5326 6.23535C20.4497 4.5567 23 3.63448 25.7101 3.63448C28.4201 3.63448 30.9704 4.5567 32.8817 6.23535C34.7988 7.914 35.8521 10.147 35.8521 12.5147C35.8521 14.8876 34.7988 17.1155 32.8817 18.7941L17.142 32.5704L14.5917 34.8034C12.2071 36.8914 8.3314 36.8914 5.94679 34.8034C4.79294 33.7931 4.15981 32.4513 4.15981 31.0213C4.15981 29.5913 4.79294 28.2495 5.94679 27.2392L21.5621 13.5717C21.9586 13.2297 22.4793 13.038 23.0355 13.038H23.0414C23.5976 13.038 24.1124 13.2297 24.503 13.5717C24.8994 13.9188 25.1124 14.3747 25.1124 14.8617C25.1124 15.3436 24.8935 15.7995 24.503 16.1414L11.7397 27.3065C11.6391 27.3946 11.5858 27.5138 11.5858 27.6381C11.5858 27.7625 11.6391 27.8816 11.7397 27.9697L13.9231 29.8815C14.0229 29.9685 14.158 30.0173 14.2988 30.0173C14.4397 30.0173 14.5748 29.9685 14.6746 29.8815L27.432 18.7112C28.6095 17.6802 29.2544 16.3124 29.2544 14.8566C29.2544 13.4007 28.6036 12.0277 27.432 11.0019C25 8.87248 21.0474 8.87766 18.6154 11.0019L17.1006 12.3334L3.00597 24.6694C2.04935 25.5021 1.29105 26.4928 0.775055 27.584C0.259061 28.6753 -0.00436491 29.8454 5.47034e-05 31.0265C5.47034e-05 33.4253 1.07106 35.679 3.00597 37.3732C5.01188 39.1244 7.63909 40 10.2663 40C12.8935 40 15.5207 39.1244 17.5207 37.3732L35.8166 21.3639C38.5089 19.0014 40 15.8565 40 12.5147C40.0059 9.1678 38.5148 6.02293 35.8166 3.66038Z" fill="black"/>
</svg>
