<svg width="32" height="32" viewBox="0 0 32 32" fill="none" xmlns="http://www.w3.org/2000/svg">
<path d="M16.0003 2.66663C8.77233 2.66663 2.66699 8.77196 2.66699 16C2.66699 23.228 8.77233 29.3333 16.0003 29.3333C23.2283 29.3333 29.3337 23.228 29.3337 16C29.3337 8.77196 23.2283 2.66663 16.0003 2.66663ZM16.0003 9.33329C18.303 9.33329 20.0003 11.0293 20.0003 13.3333C20.0003 15.6373 18.303 17.3333 16.0003 17.3333C13.699 17.3333 12.0003 15.6373 12.0003 13.3333C12.0003 11.0293 13.699 9.33329 16.0003 9.33329ZM9.19233 22.3626C10.3883 20.6026 12.383 19.4293 14.667 19.4293H17.3337C19.619 19.4293 21.6123 20.6026 22.8083 22.3626C21.1043 24.1866 18.687 25.3333 16.0003 25.3333C13.3137 25.3333 10.8963 24.1866 9.19233 22.3626Z" fill="black"/>
</svg>
